<?xml version="1.0" encoding="UTF-8"?>
<svg id="Calque_1" data-name="Calque 1" xmlns="http://www.w3.org/2000/svg" viewBox="0 0 888.1 760.09">
  <defs>
    <style>
      .cls-1 {
        fill: #000;
      }

      .cls-1, .cls-2, .cls-3, .cls-4, .cls-5, .cls-6, .cls-7, .cls-8, .cls-9, .cls-10, .cls-11, .cls-12 {
        stroke-width: 0px;
      }

      .cls-2 {
        fill: #f6f6f6;
      }

      .cls-3 {
        fill: #fbfbfb;
      }

      .cls-4 {
        fill: #23201c;
      }

      .cls-5 {
        fill: #d49b35;
      }

      .cls-6 {
        fill: #15110f;
      }

      .cls-7 {
        fill: #6f625b;
      }

      .cls-8 {
        fill: #322c26;
      }

      .cls-9 {
        fill: #7c6e61;
      }

      .cls-10 {
        fill: #0e0b0b;
      }

      .cls-11 {
        fill: #fff;
      }

      .cls-12 {
        fill: #554940;
      }
    </style>
  </defs>
  <g>
    <g>
      <path class="cls-4" d="M456.58,361.59c-8.96,15.69-19.2,7.74-25.95,37.04s-21.34,20.98,0,22.96,38.35,20.18,51.41,11.87,26.51,1.58,28.09-5.14,16.22-29.45,6.73-46.97-39.16-36.64-62.51-19.76h2.23Z"/>
      <path class="cls-3" d="M291.22,453.9s-39.75,12.8-56.2,14.97-59.6,1.68-70.66,26.25-17,38.82-26.49,43.57-6.73,62.9-23.54,77.14-15.62,18.99-26.3,24.92-24.92-11.87-34.42,0-16.62,35.6-28.48,40.35-11.87-1.19-18.99,8.31-11.87,43.91,8.31,47.47,40.35-13.05,53.41,0,30.86,24.92,64.09,16.62,48.66-14.24,58.15-8.31,43.91,1.19,74.77,1.19,64.35,5.52,85.58,9.88,62.77,9.11,73.45-11.07,32.24-49.85,32.24-49.85c0,0,15.23-9.49,40.15-8.31s15.43,5.93,70.02,0,60.53-16.62,77.14-10.68,35.6-8.31,65.27-18.99,64.09-42.73,54.59-59.34,0-33.23-14.24-48.66-45.1-18.99-52.22-28.48-3.56-27.3-10.68-28.48-10.05-2.37-25.2-5.93-25.83-5.93-38.88-14.24-7.12-17.67-35.6-18.33-22.55-6.59-37.98-6.59-14.24,9.49-27.3-10.68-28.48-20.59-32.04-22.16-10.68-12.65-22.55-3.55-21.77-6.86-48.27,7.65-26.33,18.07-32.35,26.37-18.94,15.43-23.16,16.62-10.7,4.22-36.54,1.19,8.44-14.77-39.55-10.95l4.48,2.11Z"/>
      <g>
        <path class="cls-9" d="M854.03,233.03s22.42-7,22.55-10.56-4.35-5.61-6.73-5.7,5.68-.1,6.73-1.94,8.3-8.44,3.29-12.13-3.16-2.24-3.16-2.24c0,0,4.62,2.87,5.41-.28s4.62-12.25,2.77-13.04-4.48-3.96-4.48-3.96c0,0,4.16,3.69,4.98,2.24s4.51-8.57,1.61-12.13-4.88-4.35-4.88-4.35c0,0,5.67.79,4.62-1.19s-.4-5.67-5.14-6.86-8.01-4.22-10.53-3.82-26.65,62.64-23.36,69.23,6.59,6.2,6.59,6.2l-.27.54Z"/>
        <path class="cls-8" d="M456.08,123.64s40.6,21.3,52.86,19.58,24.92-4.42,42.33.1,68.84,11.11,85.45,9.79,45.89-24.26,55.78-22.28,72-3.56,84.66,0,45.49,12.33,56.97,13.68c11.47,1.35,13.45-4.58,20.18-1.81s20.18,4.88,17.41,16.09-24.92,57.49-23.34,66.2,13.85,4.35-3.56,17.01-27.69,16.26-49.45,8.13-17.41-12.48-33.23-6.94-62.51,20.57-87.82,14.24c-25.32-6.33-34.42-5.54-64.48-.79-30.07,4.75-108,2.37-109.98,13.85s-25.32,39.43-25.32,39.43c0,0-25.9-111.82-24.62-132.4s6.18-53.87,6.18-53.87Z"/>
        <path class="cls-4" d="M238.42,341.82s-40.6-13.02-61.08,9.18-29.98,40.65-23.12,64.39-8.97,40.62,0,57.5,12.66,32.18,20.04,39.56,55.77-50.64,74.57-48,44.43-.04,45.06-4.75,22.94-128.16-55.47-117.88Z"/>
        <path class="cls-9" d="M439.9,298.05s10.71,51.95,7.3,71.2-39.54,29.54-49.03,22.95c-1.68-1.17-4.17-3.06-7.13-5.51-13.74-11.4-37.48-34.87-36.03-53.43,0,0-6.51-21.76-.79-30.99s85.69-4.21,85.69-4.21Z"/>
        <path class="cls-8" d="M351.8,341.55s3.6-2.26,11.6,3.88,7.14,9.83,10.47,10.89,3.26,3.69,3.56,8.44-.23,8.5,2.94,12.16,1.32,6.84,1.32,6.84c0,0,1.21,3.68,8.12,4.21s6.38-21.49,10.34-20.51,3.14.07,4.6-2.9-2.23-6.66,3.83-5.08c6.07,1.58,8.97-7.38,9.36-9.49s5.11-2.64,10.4.53,5.96-2.79,6.42-5.09,5.48-8.95,5.5-8.71-1.64-10.81,1.67-18.55-9.27-18.54-3.98-24.87-3.83-3.72.74-5.03,2.64-4.75,3.8-6.33.11,1.05,1.95-2.64-1.58-3.43,1.85-3.69,3.3-.98,3.89-2.73-1.48-4.04,2.18-2.81l3.65,1.23s2.99-10.45,5.05-9.94.79-3.43,2.37-5.54,2.05-7.06,4.72-5.37,11.11,32.28,10.58,39.66-1.05,11.08-1.05,14.77-1.05,6.07-1.32,7.38-1.58,5.41-.79,8.11.53,4.28-.53,7.18-1.32,5.54-2.37,7.91-.53-.07-2.11,6.96-4.48,11.24-7.91,13.88-3.16-.26-6.07,5.27.26,5.01-4.75,8.97-16.09,27.13-18.46,28.07-4.22,9.12-5.27,12.28-6.86,6.59-9.76,7.65c-2.9,1.05-4.22,0-7.91,6.33s-3.16,6.59-3.16,7.91-.53,5.01-.53,6.07,1.03,3.69-1.99,3.43-9.88,20.57-15.15,18.99c-5.27-1.58-5.01,4.75-6.07,5.8s-8.97,5.54-13.85,3.96c-4.88-1.58-15.51,6.86-20.61,6.33-5.1-.53-9.32,2.64-18.02-1.05-8.7-3.69-7.94-3.16-10.7-3.16s-14.89-7.91-19.9-13.45-9.23-5.8-9.23-5.8c0,0-3.69.79-4.48-2.11s-9.23-8.97-9.76-15.82,1.05-6.33,3.69-16.35-4.22-33.06-1.58-39.21,3.69-15.65,3.16-19.34-19.07-16.5-22.19-15.63-13.15-3.54-13.15-3.54c0,0,99.99-32.09,100.32-27.56s4.57,27.21,4.57,27.21Z"/>
        <path class="cls-9" d="M347.8,174.87s-5.8-6.58-11.87-3.29-12.13,21.76-17.93,27.16-8.44,19.4-44.04,30.86c0,0,4.48,12.86,0,16.38-4.48,3.52-29.89,11.81-26.68,17.95s39.55,5.56,50.12,12.18,48.29,22.71,50.4,27.19,3.09,9.67,5.37,11.03,9.22,6.64,18.14,2.42c8.93-4.22,10.31-3.43,10.31-3.43,0,0,6.89,8.7,17.13,7.12s29.57-8.44,35.86-16.09c6.29-7.65,36.36-42.46,37.68-48s6.33-17.19,6.33-22.57-14.51-38.35-21.36-42.04-7.65-10.81-8.18-3.43-64.09,67.25-101.27-13.45Z"/>
        <g>
          <path class="cls-7" d="M302.09,381.09s4.89,11.26,2.52,12.53-9.89-4.26-10.09,1.47-3.36,9.69,6.53,9.69,17.21,1.78,19.78-2.77,8.31-17.21,3.76-19.78-21.96-5.46-23.34-1.15h.85Z"/>
          <path class="cls-7" d="M338.98,393.45s-2.26,13.64-6.87,15.61-14.37,2.9-14.24,0-.53-4.88,1.58-8.31,6.17-17.54,6.84-20.84,1.99-3.82,6.48-1.85,6.77,12.63,6.21,15.37Z"/>
          <path class="cls-7" d="M337.88,381.9c.56,1.19,2.28,15.69-2.47,22.81s-12.92,10.81-5.54,10.68,12-2.24,15.03-5.54,9.23-4.88,8.97-11.21,1.98-12.66-2.37-14.9-13.62-1.85-13.62-1.85Z"/>
          <path class="cls-7" d="M354.92,384.93c.4,0,5.54-5.2,7.25-3.06s-3.3,26.14-7.25,25.35-3.68-2.38-2.37-6.46,2.37-15.82,2.37-15.82Z"/>
        </g>
        <path class="cls-8" d="M331.16,90.74c-.14-1.49-22.4,38.37-42.97,46.74-20.57,8.37-71.9,26.84-88.57,48.86s-51.48,51.3-61.76,79.78-26.9,29.27-22.95,52.22,12.66,78.33,33.23,69.63,19.78-49.05,55.38-46.68c35.6,2.37,89.41-4.75,90.2,14.24s10.29,29.27,13.98,30.33,6.33,2.11,7.38-1.05,5.27-2.11,7.38,1.05-3.16,11.6,2.11,3.16-1.07-5.8,6.58-3.16.51,10.45,10.41,6.81-7.27-7.86,0-8.92,8.85,0,9.38,2.64,4.59,3.69,6.78.53,6.26-4.22,4.23-3.69,4.66-21.63-4.23-41.67,2.42-34.29-16.15-43.78-41.79-21.63-53.92-25.32-27.96-4.75-37.45-7.91,25.85-7.27,26.37-22.36-2.64-12.57-2.64-12.57c0,0,28.48-4.62,36.4-16.76,7.91-12.13,18.95-30.59,20.82-35.34s18.22-4.09,18.22-4.09c0,0-10.06,1.6-18.22-82.68Z"/>
        <path class="cls-1" d="M151.84,281.95c8.15-2.3,16.41-4.16,24.83-5.37,3.74-.49,7.64-1,11.44-.5,2.22.41,4.05-.69,5.95-2.32,3.18-2.78,6.02-6.27,10.05-8.2,2.05-1.03,4.52-1.53,6.8-1.38,4.15.14,8.37,0,12.58-.03,8.43-.15,16.87-.35,25.33-.32-8.38,1.22-16.79,2.07-25.23,2.66-4.22.31-8.44.5-12.73.53-1.95-.05-3.72.29-5.45,1.17-3.63,1.84-6.25,5.13-9.45,7.81-2.01,1.72-4.63,3.3-7.47,2.96-1.74-.32-3.56-.48-5.34-.4-10.48.35-20.85,2.1-31.31,3.39h0Z"/>
        <path class="cls-1" d="M265.98,342.29c2.03-1.32,4.15-2.14,6.49-2.46,2.33.03,4.7-.1,6.61-1.64,1.81-1.3,3.75-2.47,5.61-3.65,1.87-1.1,3.63-2.1,5.55-3.61,0,0,.27.14.27.14-.46,3.82-3.9,6.6-7.33,7.79-2.18.97-4.75.77-6.92,1.71-2.12,1.1-4.07,2.45-6.61,2.41-1.18.06-2.39,0-3.62-.38,0,0-.04-.3-.04-.3h0Z"/>
        <g>
          <path class="cls-8" d="M356.63,45.77s-16.62,17.41-21.76,31.25-4.75,38.37,0,57.76,16.22,72.79,29.27,83.47,12.45,12.63,39.56,10.68c33.02-2.37,43.52-23.34,47.47-33.63s5.54-73.58,4.75-92.18-11.47-37.98-13.05-41.93-11.08-30.86-32.44-29.67-29.67-8.7-53.8,14.24Z"/>
          <path class="cls-9" d="M361.97,127.23s3.2,17.4,6.18,24.3,5.1,15.29-1.86,26.7c-6.96,11.41.94,27.76,9.87,32.51s12.95,8.97,27.43,5.54,29.37-16.32,29.59-23.6c.07-2.18.79-5.41-1.11-9.12-1.65-3.23-4.3-10.13-5.41-19.1-.4-3.24,4.48-16.42,7.77-18.33,2.82-1.63,4.64-22.06,1.42-21.73-28.64,2.92-69.24-17.96-73.89,2.84Z"/>
          <path class="cls-12" d="M388.94,118.43c-3.28-.32-12.79-7.12-18.2-5.8s-11.08,11.45-7.91,17.73c3.16,6.27,13.45,8.65,20.18,6.14,6.73-2.51,7.78-5.54,12.53-4.62s22.55,5.79,27.03,5.6,14.11-1.91,14.9-8.37-7.38-16.09-15.03-14.11-6.07,6.07-33.49,3.43Z"/>
          <path class="cls-11" d="M369.75,126.01s4.42-6.07,8.9-3.96,6.46,3.1,6.59,4.55-6.66,3.63-15.49-.59Z"/>
          <path class="cls-11" d="M409.38,129.38s6.73-6.46,9.89-5.67,7.12,2.37,7.38,3.69-8.97,5.67-17.27,1.98Z"/>
          <circle class="cls-1" cx="376.89" cy="125.04" r="2.92"/>
          <circle class="cls-1" cx="418.02" cy="127.23" r="2.92"/>
          <path class="cls-1" d="M387.62,136.36c-1.19,6.05-5.25,13.13-12,13.71,6.22-2,9.42-8.16,12-13.71h0Z"/>
          <path class="cls-1" d="M406.08,137.48c2.15,5.03,4.03,10.52,8.44,14.05-5.29-2.37-7.67-8.65-8.44-14.05h0Z"/>
          <path class="cls-1" d="M390.79,151.53c-6.63,5.15-19.92,14.39-10.73,23.03,1.04,1.05,2.1,2.07,3.31,2.95-1.43-.49-2.71-1.34-3.95-2.2-11.63-8.55,2.38-20.6,11.37-23.78h0Z"/>
          <path class="cls-1" d="M412.53,153.84c5.36,4.05,9.97,11.53,7.05,18.36-1.54,3.03-3.94,5.6-6.02,8.28-.33.4-.89,1.06-1.2,1.46-.02.03-.07.09-.01.05-.04.07-.05-.04-.02-.06.07-.21.25-.62.34-.83,1.26-2.72,2.82-5.39,4.37-7.96,3.84-6.52-.62-13.83-4.5-19.29h0Z"/>
          <path class="cls-6" d="M396.85,169.99c.32-.64-6.2-7.52-7.91-7.52s-3.03-.4-3.16,2.04,2.9,4.68,6.46,6.13,3.69,1.19,4.62-.66Z"/>
          <path class="cls-6" d="M408.59,163.4s-6.99,3.43-7.25,5.14-2.24,4.88,0,4.88,8.44-4.76,8.97-6.4.92-3.75-1.71-3.62Z"/>
          <path class="cls-6" d="M392.37,153.11s4.77,3.16,4.49,7.78.52,4.3,1.31,1.56,1.98-7.62-5.8-9.34Z"/>
          <path class="cls-1" d="M434.6,146.12c-5.31,6.71-9.37,15.88-6.44,24.39,1.14,3.33,2.5,6.7,3.41,10.14.35,1.72,1.04,3.53.66,5.29.17-1.75-.64-3.49-1.13-5.15-.81-2.43-1.89-5.08-2.87-7.46-.93-2.14-1.6-4.17-1.94-6.5-.79-7.76,3-15.31,8.31-20.71h0Z"/>
          <path class="cls-1" d="M361.92,145.73c6.85,3.61,11.13,11.72,9.54,19.43-.71,3.79-2.42,7.24-3.87,10.78-1.32,3.06-3.2,7.43-4.61,10.41,1.05-3.1,2.72-7.59,3.9-10.7,1.29-3.57,3.01-7.01,3.6-10.66,1.61-7.47-2.37-15.1-8.55-19.26h0Z"/>
          <path class="cls-1" d="M371.4,196.5c2.09,2.53,5.25,3.56,8.3,2.51,0,0,3.12-.81,3.12-.81,4.17-1.02,8.44-2.1,13.03-1.68,5.35.78,10.21,3.39,15.56,3.87,2.6.05,5.33-.09,7.77-1.07.47-.22.95-.48,1.25-.94-.49,1-1.6,1.51-2.59,1.92-2.05.8-4.23,1.18-6.43,1.3-5.38.11-10.57-2.36-15.8-3.11-4.1-.4-8.37.55-12.46,1.24,0,0-3.18.57-3.18.57-3.27.87-7.12-.81-8.58-3.81h0Z"/>
          <path class="cls-8" d="M374.08,226.13s6.03,17.24,7.54,13.88-.46-6.92,3.3-2.97,3.82,12.26,5.87,7.52,3.39-4.55,6.08-1.98,1.76,3.76,3.41.99,3.04-5.54,4.82-3.56,2.18,5.54,4.35,2.37,2.04-6.92,5.08-6.33,3.97.79,4.98-2.38,2.4-4.6,4.38-4.08,1.2-1.73,2.77-3.47,2.89-4.54,2.89-4.54l-55.48,4.54Z"/>
          <path class="cls-1" d="M386.3,205.33c4.34-1.74,9.3-1.67,13.74-.33,1.49.45,2.92,1.14,4.2,2.05-1.57-.13-3.04-.37-4.52-.52-4.32-.51-9.07-.71-13.41-1.19h0Z"/>
          <path class="cls-9" d="M341.58,64.55s30.28,26.91,48.28,27.11,48.46-.79,53.01-3.56,7.03-10.89,7.03-10.89c0,0,0-35.99-21.27-49.04-16.79-10.31-59.17-17.82-87.05,36.38Z"/>
          <path class="cls-8" d="M369.34,84.54s-3.21-13.25-3.61-15.43-2.77-4.15-2.77-1.58.68,2.18-1.04-.2-.93-6.53-3.51-2.77-4.55,2.97-6.53.4-6.1.37-5.72,3.45-.02,7.43-.02,7.43l23.2,8.7Z"/>
          <path class="cls-8" d="M424.68,91.69s3.96-13.67,3.76-10.51,2.57,8.11,4.35,2.37,3.93-8.31,4.73-6.53,2.78-.32,3.97-.56-.98,2.34-.79,4.32,1.38,1.98,2.57,1.58.4-1.38,0,2.18-.2,5.74-.2,5.74l-18.4,1.41Z"/>
          <path class="cls-1" d="M387.59,88.26c1.42-1.89,3.82-3.56,6.36-3.12.84.09,1.63.38,2.35.6,1.41.5,3,.29,4.47-.26,2.96-1.03,6.16-3.06,9.37-1.55.74.37,1.32.63,2.1.75,3.47.43,7-.95,10.52-.55.4.07.82.08,1.17.39l-.08.06c-.67-.25-1.52-.08-2.27,0-3.52.38-7.23,2.13-10.75.76-1.71-.99-3.43-1.46-5.46-1-2.35.39-4.46,1.64-6.78,2.22-1.57.43-3.26-.27-4.75-.54-2.36-.42-4.35.84-6.17,2.32,0,0-.07-.07-.07-.07h0Z"/>
          <path class="cls-1" d="M383.33,80.94c1.42-1.89,3.82-3.56,6.36-3.12.84.09,1.63.38,2.35.6,1.41.5,3,.29,4.47-.26,2.96-1.03,6.16-3.06,9.37-1.55.74.37,1.32.63,2.1.75,3.47.43,7-.95,10.52-.55.4.07.82.08,1.17.39l-.08.06c-.67-.25-1.52-.08-2.27,0-3.52.38-7.23,2.13-10.75.76-1.71-.99-3.43-1.46-5.46-1-2.35.39-4.46,1.64-6.78,2.22-1.57.43-3.26-.27-4.75-.54-2.36-.42-4.35.84-6.17,2.32,0,0-.07-.07-.07-.07h0Z"/>
          <path class="cls-1" d="M383.33,73.62c1.42-1.89,3.82-3.56,6.36-3.12.84.09,1.63.38,2.35.6,1.41.5,3,.29,4.47-.26,2.96-1.03,6.16-3.06,9.37-1.55.74.37,1.32.63,2.1.75,3.47.43,7-.95,10.52-.55.4.07.82.08,1.17.39l-.08.06c-.67-.25-1.52-.08-2.27,0-3.52.38-7.23,2.13-10.75.76-1.71-.99-3.43-1.46-5.46-1-2.35.39-4.46,1.64-6.78,2.22-1.57.43-3.26-.27-4.75-.54-2.36-.42-4.35.84-6.17,2.32,0,0-.07-.07-.07-.07h0Z"/>
          <path class="cls-8" d="M341.58,64.55s4-9.42,5.07-8.96,3.05-1.28,4.34-.02,4.95-3.78,5.84-1.8-.2,3.16,0,4.05,2.52,6.71,2.52,6.71c0,0-3.81,10.87-11.62,9.1s-5.96-7.9-6.15-9.59v.48Z"/>
          <path class="cls-8" d="M449.9,78.08s-.09-5.43-.57-8.95-.79-4.63-1.97-4.9-4.35,1.42-4.88,1.5-1.16,2.89-.64,3.4.39,1.04-1.13,1.17-1.6.6-.97,1.09,1.83,1.92.97,2.26-1.62-1.58-.73.73.73,3.69.73,3.69c0,0-2.38,4.33,0,6.46s.54,6.07,3.93,6.2,5.27-12.66,5.27-12.66Z"/>
        </g>
        <path class="cls-1" d="M380.24,248.72c1.99,10.12,3.14,20.37,3.87,30.65.32,5.14.53,10.3.41,15.47-.18,4.5-.23,9.17-1.8,13.46-.26.59-.58,1.2-1.09,1.61.44-.48.64-1.1.8-1.71.95-4.37.59-8.9.53-13.35-.2-5.12-.49-10.23-.84-15.35-.58-9.04-1.54-21.84-1.87-30.78h0Z"/>
        <path class="cls-1" d="M383.74,315.48c7.05,4.37,15.61,4.65,23.47,2.78,1.15-.27,2.28-.6,3.48-.82-7.96,5.3-20.34,5.71-26.95-1.96h0Z"/>
        <path class="cls-1" d="M355.01,315.48c5.4,2.04,11.23,2.2,16.72.57,1.29-.32,2.59-.83,3.9-1.19-5.41,5.15-15.08,6.02-20.61.63h0Z"/>
        <path class="cls-9" d="M381.99,378.88s-3.27,2.56-1.75,5.33,9.03,4.95,10.02,4.95.05.05,1.61-1.8-3.9-9.08-6.02-9.08-3.86.6-3.86.6Z"/>
        <path class="cls-10" d="M863.01,217.36c1.85-1.02,3.98-1.46,6.05-1.08.28.09.66.17.81.48-.27-.12-.55-.03-.83,0-2,.38-3.94.81-6.03.59h0Z"/>
        <path class="cls-10" d="M871.01,199.77c2.06-.44,4.24-.25,6.1.72.24.17.58.35.63.7-.23-.19-.52-.19-.8-.23-2.03-.22-4-.37-5.94-1.18h0Z"/>
        <path class="cls-10" d="M877.15,180.82c2.02.61,3.83,1.82,5,3.57.13.27.34.59.22.91-.11-.28-.37-.42-.59-.59-1.67-1.17-3.33-2.25-4.64-3.9h0Z"/>
        <path class="cls-10" d="M877.84,165.34c2.02.61,3.83,1.82,5,3.57.13.27.34.59.22.91-.11-.28-.37-.42-.59-.59-1.67-1.17-3.33-2.25-4.64-3.9h0Z"/>
      </g>
      <path class="cls-2" d="M266,661.73s24.84-76.88,44.09-78,30.47-10.62,47.01-20.11,14.44-26.9,28.15-17.41,6.2,23.74,70.88,15.82,56.77-45.06,75.76-18.57,75.96,42.31,91.78,47.06,26.9,26.9,11.08,33.23-26.9,15.82-64.88,9.49-58.55,14.24-96.53,25.32-71.4,18.99-95.83,22.15-125.79-4.75-111.5-18.99Z"/>
      <path class="cls-2" d="M224.34,623.75c-5.77,22.15-18.43,59.93-31.09,57.66s-73.99-.69-78.93,7.22-.19,20.57,18.79,22.15,84.33-4.75,91.22-6.33,18.11-37.98,14.08-42.73-14.08-37.98-14.08-37.98Z"/>
    </g>
    <path class="cls-5" d="M467.3,13.95c-2.29-3.93-6.98-5.44-11-6.89C439.13.86,420.92.33,402.85.04c-17.92-.29-36,.78-53.08,6.65-2.09.71-4.14,1.49-6.18,2.32-.99.41-1.91,1.05-2.59,1.87,0,0-.01.01-.02.02-1.15.93-2,2.16-2.3,3.65-.64,3.25,1.13,6.24,4.03,7.71,3.94,2,8.24,3.53,12.43,4.93,4.69,1.56,9.47,2.79,14.3,3.74,1.92-.98,12.72-6.45,16.5-7.9-1.26-.07-2.51-.16-3.76-.28-.92-.08-1.84-.18-2.75-.28-.35-.05-.71-.09-1.06-.13.05,0-.82-.12-1.05-.15-1.9-.28-3.8-.61-5.69-.98-3.85-.77-7.66-1.73-11.41-2.89-1.84-.57-3.66-1.18-5.47-1.84-.43-.16-.87-.32-1.3-.48,5.04-1.68,10.19-3,15.43-3.95,1.03-.18,2.07-.36,3.11-.52.44-.06.87-.12,1.31-.19l.21-.03s.05-.01.07-.01c.23-.02.45-.05.68-.08,2-.25,4.01-.45,6.02-.62,4.03-.33,8.08-.5,12.12-.57,8.11-.14,16.23.09,24.34.38,4.17.16,8.33.37,12.48.77.98.1,1.95.2,2.92.32.11.01.43.05.65.08-.01-.01-.02-.01-.03-.01.04.01.09.01.13.02.02,0,.03,0,.05.01.06,0,.09,0,.1,0,.47.06.94.13,1.42.21,1.94.29,3.88.65,5.81,1.06,3.84.82,7.64,1.87,11.37,3.12.9.31,1.79.62,2.67.95.44.16.89.33,1.33.5.22.08.44.17.66.25.07.03.38.17.54.23.03.01.05.02.06.03h.01s.02.01.02.01c.12.06.23.11.27.13.17.09.34.18.51.27-.02.01-.03.02-.05.02-.38.11-.77.17-1.15.25-.26.03-.53.05-.79.08-4.12.36-8.24.65-12.35.97-8.29.65-16.58,1.31-24.87,1.96-1.82.14-3.63.3-5.45.45,2.48.51,10.46,2.51,18.96,8.49.88-.07,1.77-.14,2.65-.21,4.56-.36,9.12-.72,13.68-1.08,4.76-.37,10.01-.18,14.41-2.21,4.86-2.25,7.32-8.37,4.55-13.14ZM458.79,17.72s-.05.05-.11.11h0c.05-.08.09-.13.11-.11ZM458.57,18.8s.01.01.01.02c.01.01.01.02.01.03-.02-.01-.02-.02-.03-.02,0-.01,0-.02.01-.03ZM458.56,18.9s.02.02.03.03c-.01.09-.04.11-.03-.03ZM458.75,19.15s-.03-.07-.06-.12h.01s.07.08.09.1c-.01,0-.03-.02-.07-.06.01.03.02.06.03.08Z"/>
  </g>
  <path class="cls-1" d="M173.86,352.36c7.62-10.79,22.57-13.82,35-11.89,1.8.36,3.59.76,5.33,1.27-1.84.16-3.64.15-5.43.2-12.26.51-24.89,2.82-34.91,10.42h0Z"/>
</svg>