<svg width="474" height="89" viewBox="0 0 474 89" fill="none" xmlns="http://www.w3.org/2000/svg">
<path d="M9.03065 82.0884C9.24732 76.583 10.5714 71.1508 11.089 65.5724C11.6065 59.994 11.7028 54.5739 11.8593 49.0686C12.1482 37.997 12.4491 26.9255 12.738 15.8539C12.7982 13.4666 10.6195 11.1768 8.22418 11.2864C5.82884 11.396 3.78258 13.2961 3.71035 15.8539C3.42147 26.9255 3.12055 37.997 2.83166 49.0686C2.68722 54.5739 2.57889 60.0914 2.0613 65.5724C1.54372 71.0533 0.231698 76.51 0.00299779 82.0884C-0.0932972 84.4756 2.14556 86.7655 4.51682 86.6558C7.04457 86.5462 8.92232 84.6461 9.03065 82.0884Z" fill="#DDB96A"/>
<path d="M37.5219 22.09C37.5219 41.7241 37.5219 61.3581 37.5219 80.9922C37.5219 83.3794 39.5923 85.6692 42.0357 85.5596C44.4792 85.45 46.5496 83.5499 46.5496 80.9922C46.5496 61.3581 46.5496 41.7241 46.5496 22.09C46.5496 19.7027 44.4792 17.4129 42.0357 17.5225C39.5923 17.6322 37.5219 19.5322 37.5219 22.09Z" fill="#DDB96A"/>
<path d="M6.32233 47.0345C17.0111 46.0967 27.8924 46.4621 38.3645 48.2891C40.6876 48.691 43.3357 47.6679 43.9135 45.0979C44.407 42.8812 43.2515 39.9093 40.7598 39.483C29.3729 37.4976 17.8416 36.8886 6.32233 37.8996C3.97514 38.1066 1.68814 39.8484 1.80851 42.467C1.9048 44.7691 3.80663 47.2538 6.32233 47.0345Z" fill="#DDB96A"/>
<path d="M57.0939 78.3369C59.7661 67.0705 62.2818 55.7432 65.2429 44.5498C66.6271 39.2881 68.1317 34.1847 70.515 29.3614C72.8983 24.5382 75.7149 19.447 78.3269 14.5019L70.0817 13.4057C73.765 24.526 77.376 35.6828 81.3482 46.7057C83.25 51.9796 85.4407 57.156 86.4879 62.6979C87.5351 68.2398 87.8481 73.4284 89.8462 78.4831L97.3933 74.0374C97.1406 73.8304 96.8878 73.6111 96.635 73.4041C94.7573 71.845 92.0971 71.5405 90.2555 73.4041C88.6666 75.0118 88.3657 78.2882 90.2555 79.8594C90.5083 80.0665 90.761 80.2857 91.0138 80.4928C92.5786 81.7961 94.6369 82.3076 96.4785 81.2114C98.0674 80.2736 99.2831 77.8985 98.5489 76.0593C96.5508 71.0046 96.1897 65.5724 95.1906 60.2741C94.1915 54.9758 91.9527 49.5558 90.0508 44.2819C86.0666 33.259 82.4556 22.1022 78.7843 10.9819C77.6168 7.43757 72.465 6.25611 70.5391 9.88573C67.8308 14.9891 64.9901 20.056 62.4744 25.2568C59.9587 30.4576 58.2013 35.9264 56.6967 41.5292C53.6634 52.9053 51.1116 64.4275 48.3912 75.8888C47.8375 78.203 49.1134 80.9435 51.5449 81.5037C53.9763 82.064 56.5041 80.7973 57.0939 78.3126V78.3369Z" fill="#DDB96A"/>
<path d="M63.7021 51.602C65.0141 51.2366 66.3382 50.9199 67.6863 50.6763C67.9993 50.6154 68.3002 50.5667 68.6131 50.518C68.7456 50.4936 70.0335 50.2866 69.2631 50.4084C68.4928 50.5302 69.7807 50.3475 69.9131 50.3353C70.2261 50.2987 70.539 50.2744 70.852 50.2378C73.5723 49.9942 76.3047 50.0064 79.025 50.25C81.3843 50.4571 83.6472 47.9967 83.5389 45.6826C83.4185 43.0273 81.5528 41.3343 79.025 41.1151C73.1029 40.5913 67.0484 41.2003 61.3188 42.7959C59.0438 43.4293 57.4189 46.0723 58.1651 48.4109C58.9114 50.7494 61.2827 52.2841 63.7141 51.602H63.7021Z" fill="#DDB96A"/>
<path d="M112.102 74.1105C113.342 61.7235 113.836 49.2756 113.535 36.8277C113.463 33.9046 113.33 30.9814 113.21 28.0582C113.101 25.2933 113.065 22.5041 113.631 20.2143C113.98 18.8014 114.1 18.5091 114.594 17.5226C115.172 16.3655 115.834 15.2571 116.448 14.1243C117.916 11.4204 118.951 8.71646 119.192 5.62276C119.373 3.23549 116.989 0.945663 114.678 1.05528C112.078 1.17708 110.357 3.06497 110.164 5.62276C110.128 6.19521 110.116 6.25611 110.152 5.80546C110.092 6.10995 110.02 6.41445 109.924 6.70677C109.839 7.01127 109.731 7.30359 109.623 7.59591C109.791 7.23051 109.755 7.30359 109.526 7.80296C108.961 8.96006 108.335 10.0684 107.709 11.189C106.385 13.5763 105.217 16.0853 104.7 18.8014C103.58 24.7209 104.363 30.8352 104.495 36.8156C104.784 49.2635 104.29 61.7113 103.063 74.0983C102.822 76.4856 105.314 78.7632 107.577 78.6658C110.225 78.544 111.838 76.6561 112.09 74.0983L112.102 74.1105Z" fill="#DDB96A"/>
<path d="M114.245 8.96006C119.18 9.97099 123.152 12.1025 127.522 14.7699C129.568 16.0244 131.65 17.2546 133.588 18.6675C133.588 18.6675 134.178 19.1303 133.865 18.8745C133.516 18.5822 134.226 19.2034 134.298 19.2643C134.696 19.6297 135.057 20.0073 135.43 20.397C135.43 20.397 135.899 20.9695 135.659 20.6406C135.418 20.3118 135.839 20.9208 135.839 20.9208C135.996 21.1887 136.14 21.4567 136.309 21.7124C136.489 22.0169 136.513 22.2362 136.369 21.7855C136.525 22.2484 136.646 22.7234 136.754 23.1984C136.91 23.9048 136.73 22.5041 136.754 23.2228C136.754 23.4298 136.778 23.6369 136.778 23.8561C136.778 24.1363 136.778 24.4164 136.754 24.6965C136.754 24.7574 136.67 25.4395 136.754 24.9279C136.838 24.4164 136.718 25.1106 136.694 25.1594C136.609 25.5126 136.537 25.8536 136.429 26.1947C136.369 26.4139 135.899 27.5954 136.212 26.9133C136.008 27.3761 135.767 27.8146 135.502 28.2531C135.394 28.4358 134.623 29.532 135.105 28.923C134.756 29.3736 134.359 29.7999 133.949 30.1897C133.793 30.3358 133.636 30.482 133.48 30.616C132.95 31.0788 133.913 30.3237 133.299 30.7621C132.854 31.0788 132.385 31.3833 131.915 31.6513C131.506 31.8827 131.085 32.1019 130.663 32.2968C131.217 32.0288 130.519 32.3577 130.447 32.3821C130.146 32.4917 129.857 32.6013 129.556 32.6987C128.497 33.0398 127.425 33.2834 126.33 33.4904C126.234 33.5026 125.451 33.6122 126.113 33.527C125.873 33.5513 125.632 33.5757 125.403 33.6001C124.765 33.661 124.127 33.6975 123.489 33.7097C117.35 33.8802 111.513 32.309 105.386 31.4929V40.6279C110.453 40.9567 115.316 41.8459 120.384 43.3805C122.586 44.0504 125.15 44.9639 127.04 45.7678C129.05 46.6204 131.831 47.8871 133.131 49.0686C133.528 49.434 133.901 49.8115 134.238 50.2257C133.781 49.6532 134.708 50.9808 134.792 51.1392C135.454 52.2963 135.334 52.0648 135.719 53.3681C136.393 55.6579 136.453 56.474 136.489 58.9952C136.561 64.7807 135.659 70.3713 136.537 76.1567C136.91 78.5927 139.932 79.9447 142.086 79.3479C144.662 78.6293 145.613 76.1811 145.24 73.7329C144.445 68.5199 145.83 62.6248 145.445 57.156C145.059 51.6873 143.422 45.9505 139.125 42.2844C134.828 38.6182 128.557 36.3527 123.032 34.6597C117.507 32.9667 111.344 31.8827 105.374 31.4929C103.015 31.3346 100.752 33.7097 100.86 36.0604C100.98 38.8009 102.858 40.2868 105.374 40.6279C111.248 41.4074 117.555 43.0639 123.718 42.8446C129.64 42.6376 135.526 40.9567 140.028 36.9252C144.301 33.1129 146.468 27.0351 145.577 21.3592C144.626 15.3789 139.835 11.6762 135.069 8.67992C129.339 5.07466 123.369 1.48158 116.664 0.105249C114.353 -0.369768 111.681 0.775145 111.115 3.29639C110.598 5.57404 111.789 8.41196 114.269 8.91134L114.245 8.96006Z" fill="#DDB96A"/>
<path d="M163.091 75.8157C163.801 58.6055 169.29 41.6266 178.955 27.0473C179.677 25.9632 180.412 24.9036 181.17 23.8439C181.519 23.3567 181.88 22.8695 182.241 22.3823C182.578 21.9439 182.35 22.2484 182.277 22.3458C182.482 22.09 182.675 21.8464 182.879 21.6028C183.517 20.8355 184.612 19.654 185.106 19.2521C185.78 18.704 186.466 18.363 187.249 18.1437L181.531 13.7346C180.688 25.2324 179.882 36.8034 181.375 48.2769C182.073 53.6239 183.144 58.8978 184.974 63.9768C185.949 66.6686 187.068 69.3238 188.392 71.8572C188.97 72.9534 189.596 74.0131 190.234 75.0727C190.402 75.3285 190.559 75.5965 190.703 75.8644C190.944 76.3638 190.992 76.4247 190.848 76.0593C190.98 76.6196 191.028 76.6439 190.968 76.1446C191.004 75.901 191.052 75.6452 191.1 75.4016C189.764 77.46 190.691 80.4563 192.725 81.6499C194.928 82.9531 197.564 82.0762 198.9 80.0056C200.898 76.9241 199.767 73.3432 198.034 70.4443C196.673 68.1789 195.398 65.8525 194.386 63.3922C192.641 59.1414 191.233 53.5751 190.462 48.6179C188.789 37.6925 189.716 25.1715 190.559 13.698C190.775 10.7018 187.501 8.54594 184.841 9.28891C179.75 10.7261 176.512 14.8551 173.514 18.9841C170.674 22.8939 168.122 27.0351 165.883 31.3346C161.393 39.9702 158.047 49.2513 156.109 58.8125C154.978 64.3909 154.292 70.0789 154.051 75.767C153.955 78.1542 156.193 80.4441 158.565 80.3344C161.092 80.2248 162.97 78.3248 163.078 75.767L163.091 75.8157Z" fill="#DDB96A"/>
<path d="M163.921 55.0489C169.795 54.7444 175.681 54.9028 181.531 55.4996C183.89 55.7432 186.141 53.2219 186.045 50.9321C185.925 48.2525 184.059 46.6204 181.531 46.3646C175.681 45.7556 169.795 45.6095 163.921 45.914C161.562 46.0358 159.299 47.9237 159.407 50.4814C159.516 52.8565 161.393 55.1829 163.921 55.0489Z" fill="#DDB96A"/>
<path d="M210.733 78.2395C213.694 65.3166 216.655 52.3937 219.604 39.4708C221.036 33.2225 222.216 26.8524 223.925 20.6771C223.985 20.4579 224.503 19.0207 224.13 19.8855C224.334 19.4104 224.587 18.9476 224.864 18.5213C224.382 19.2643 224.731 18.7649 224.852 18.5944C224.707 18.8014 224.081 18.9354 224.755 18.6796C224.37 18.8258 224.202 18.8502 223.768 18.9232L223.347 18.8136C223.805 18.9476 223.877 18.9598 223.576 18.8745C223.335 18.7893 223.094 18.3873 223.335 18.7771C223.383 18.8623 224.009 19.5322 223.696 19.1303C223.383 18.7284 223.961 19.5444 224.021 19.6419C224.202 19.922 224.358 20.2143 224.527 20.5066C225.141 21.6515 225.369 22.3702 225.791 23.8805C227.741 30.7743 228.968 37.9483 230.509 44.9517C231.4 48.9955 236.756 49.1416 238.754 46.0479C241.679 41.5292 244.604 36.9983 247.541 32.4795C250.141 28.4723 252.308 25.1472 255.955 22.0291L248.251 18.8014C246.578 37.388 246.542 56.0842 248.131 74.6708C248.336 77.0459 250.057 79.36 252.645 79.2382C254.92 79.1408 257.375 77.2164 257.159 74.6708C255.558 56.0842 255.606 37.3758 257.279 18.8014C257.436 17.0353 256.015 15.2449 254.499 14.6237C252.717 13.9051 251.008 14.3314 249.563 15.5738C245.688 18.8867 242.787 23.1862 240.018 27.4492C236.997 32.1141 233.976 36.779 230.954 41.4561L239.2 42.5523C237.659 35.5488 236.431 28.3749 234.481 21.481C233.578 18.2777 232.206 14.9039 229.859 12.4922C227.175 9.73957 223.046 8.89915 219.748 11.0794C217.1 12.8333 215.728 15.9879 215.006 18.9963C214.151 22.5407 213.381 26.0972 212.562 29.6538C210.913 36.8521 209.264 44.0504 207.615 51.2609C205.737 59.4459 203.871 67.6308 201.994 75.8279C201.464 78.1542 202.704 80.8825 205.147 81.4428C207.446 81.9787 210.131 80.7364 210.696 78.2517L210.733 78.2395Z" fill="#DDB96A"/>
<path d="M268.726 16.2558C268.329 27.8268 267.787 39.3855 267.571 50.9565C267.354 62.5274 267.823 73.7695 270.845 84.7314C271.651 87.6424 274.913 88.8604 277.477 87.4597C282.605 84.6583 287.708 81.8204 292.716 78.8119C297.242 76.108 300.985 72.113 300.612 66.4128C300.263 61.3216 297.266 56.6932 292.968 54.0745C288.214 51.1757 282.508 50.7494 277.104 50.4571L279.379 58.9708C288.707 54.9637 298.602 50.5302 305.234 42.4427C309.146 37.6803 313.082 30.482 307.617 25.1837C303.525 21.2252 297.627 18.5578 292.318 16.8039C286.192 14.7821 279.559 14.0269 273.144 14.6481C270.797 14.8673 268.509 16.5847 268.63 19.2156C268.726 21.4932 270.628 24.0266 273.144 23.783C278.055 23.308 282.316 23.6003 286.757 24.7087C291.464 25.878 295.183 27.4979 299.3 30.2384C299.793 30.5673 300.275 30.9083 300.756 31.2493C301.43 31.7365 300.347 30.8596 300.913 31.3589C301.081 31.5051 301.238 31.6513 301.394 31.7974C301.19 31.5904 301.25 31.1762 301.466 31.907C301.418 31.7487 301.346 31.6878 301.334 31.5051C301.298 31.0179 301.334 31.7609 301.334 31.7974C301.43 31.0423 301.25 32.041 301.202 32.1872C301.009 32.9302 301.442 31.7365 301.129 32.443C301.033 32.6622 300.913 32.8814 300.804 33.0885C300.54 33.5757 300.251 34.0385 299.938 34.5014C299.625 34.9642 299.336 35.4027 298.999 35.829C299.324 35.4027 298.445 36.4745 298.253 36.6938C296.844 38.3015 295.279 39.7875 293.606 41.1151C294.1 40.7253 293.486 41.2003 293.426 41.249C293.245 41.383 293.053 41.5292 292.872 41.6632C292.439 41.9798 291.993 42.2843 291.548 42.5888C290.585 43.2466 289.586 43.8556 288.587 44.4524C284.182 47.0345 279.511 49.0929 274.829 51.1026C273.023 51.8821 272.277 54.5008 272.759 56.2547C273.3 58.2644 275.118 59.4946 277.116 59.6042C279.114 59.7138 281.413 59.86 282.713 60.0792C284.506 60.3837 286.637 60.9927 287.769 61.6017C288.202 61.8331 288.611 62.0889 289.008 62.3569C289.261 62.5396 289.237 62.503 288.912 62.2594C289.129 62.4299 289.321 62.6248 289.526 62.8075C289.827 63.0998 290.104 63.4043 290.368 63.721C289.875 63.1364 290.513 63.9646 290.633 64.1473C290.85 64.5005 291.043 64.8659 291.223 65.2313C290.874 64.5371 291.283 65.4019 291.355 65.6698C291.476 66.0596 291.56 66.4493 291.632 66.8391C291.488 66.0352 291.572 66.8391 291.596 67.2045C291.668 68.252 291.849 66.5224 291.584 67.5455C291.536 67.716 291.115 68.8001 291.536 67.9353C291.127 68.7757 291.163 68.6904 290.332 69.4821C289.502 70.2738 290.778 69.2629 289.755 69.9206C289.357 70.1764 288.96 70.4443 288.551 70.6879C287.612 71.2604 286.661 71.8085 285.71 72.3566C281.473 74.8169 277.2 77.2286 272.903 79.5671L279.535 82.2954C276.658 71.8938 276.358 61.2363 276.586 50.3718C276.815 39.5073 277.333 27.6197 277.73 16.2437C277.814 13.8564 275.599 11.5666 273.216 11.6762C270.7 11.7858 268.786 13.6859 268.702 16.2437L268.726 16.2558Z" fill="#DDB96A"/>
<path d="M313.419 81.3576C315.899 76.9362 318.932 72.8925 321.833 68.7513C324.734 64.6101 327.442 60.1401 329.621 55.4508C334.243 45.4877 337.697 34.952 341.489 24.6478L334.857 27.3761C334.459 27.1934 334.062 25.9145 334.267 26.7793C334.399 27.3517 334.616 27.9242 334.784 28.4845C335.182 29.8121 335.591 31.1397 335.988 32.4673C336.722 34.9277 337.457 37.4002 338.191 39.8727C339.659 44.8421 341.128 49.8115 342.295 54.8662C343.463 59.9209 344.065 64.4518 344.474 69.4578C344.715 72.3566 345.317 74.8413 346.665 77.4234C347.676 79.36 348.302 81.1261 348.41 83.0627C348.531 85.45 350.396 87.7398 352.924 87.6302C355.259 87.5206 357.57 85.6205 357.438 83.0627C357.269 79.896 356.547 77.0093 355.175 74.1592C354.958 73.6964 354.706 73.2579 354.465 72.8072C354.308 72.5149 354.152 72.2104 354.007 71.9059C354.128 72.2348 354.08 72.113 353.887 71.5405C353.526 70.2373 353.526 69.6648 353.442 68.3372C353.056 62.5883 352.106 56.9003 350.745 51.2975C349.385 45.6947 347.82 40.5182 346.232 35.1713C345.437 32.516 344.643 29.8608 343.848 27.2056C343.006 24.392 342.332 20.8964 339.431 19.4957C336.53 18.095 333.882 19.3008 332.798 22.224C329.211 31.9679 325.949 42.126 321.604 51.3584C319.474 55.865 316.91 60.0792 314.057 64.1595C311.204 68.2398 308.123 72.3444 305.643 76.7657C304.44 78.9094 305.138 81.7595 307.268 83.014C309.399 84.2686 312.239 83.5256 313.443 81.3697L313.419 81.3576Z" fill="#DDB96A"/>
<path d="M325.624 62.6735C327.31 62.1498 329.019 61.6991 330.752 61.3703C331.282 61.2728 331.823 61.1876 332.353 61.1023C333.352 60.944 331.667 61.1632 332.762 61.0536C333.641 60.9683 334.52 60.8831 335.398 60.8344C337.156 60.7369 338.925 60.7491 340.683 60.8709C341.561 60.9318 342.44 61.0171 343.319 61.1267C342.32 60.9927 343.511 61.1632 343.728 61.1998C344.27 61.285 344.799 61.3946 345.329 61.4921C347.64 61.9549 350.312 60.8222 350.878 58.3009C351.383 56.0355 350.204 53.1854 347.724 52.686C339.575 51.0539 331.149 51.3706 323.205 53.8674C320.954 54.5739 319.281 57.083 320.051 59.4824C320.822 61.8818 323.193 63.4287 325.6 62.6735H325.624Z" fill="#DDB96A"/>
<path d="M409.666 24.4286C403.07 23.2349 396.437 22.2484 389.793 21.4445C383.149 20.6406 377.154 19.7393 371.052 22.1996C368.223 23.3445 365.479 24.7331 362.867 26.3043C360.255 27.8755 357.907 29.9217 356.872 32.8571C354.489 39.6048 360.965 44.3793 366.02 47.1685C375.975 52.6616 387.566 54.1841 398.76 54.1476C400.097 54.1476 401.433 54.1111 402.769 54.0745C403.419 54.0502 404.069 54.0136 404.719 54.0258C405.032 54.0258 405.381 54.0258 405.682 54.0745C404.996 53.9649 406.163 54.3059 405.778 54.1354C405.357 53.9405 406.368 54.5495 405.946 54.245C405.609 54.0014 406.139 54.4764 406.151 54.5008C405.826 53.9284 406.211 54.5861 406.259 54.6713C406.428 54.9515 406.572 55.2316 406.741 55.5117C407.126 56.1816 407.018 56.0477 406.909 55.8041C407.042 56.1086 407.15 56.4374 407.246 56.7663C407.499 57.5823 407.692 58.4106 407.836 59.251C407.957 59.9087 408.041 61.1754 408.065 62.369C408.077 63.0146 408.065 63.6601 408.041 64.3057C408.029 64.6345 408.005 64.9512 407.969 65.2801C407.933 65.7307 408.065 64.9999 407.896 65.7429C407.764 66.3641 407.62 66.9852 407.415 67.5821C407.608 67.0096 406.958 68.4468 406.849 68.6052C406.777 68.7148 406.308 69.2385 406.717 68.7757C406.524 68.9827 406.32 69.1776 406.115 69.3847C405.995 69.5065 405.441 69.8719 406.043 69.4578C405.754 69.6526 405.453 69.8353 405.152 70.0059C404.971 70.1033 404.779 70.2007 404.586 70.2982C405.345 69.9084 404.177 70.4443 404.081 70.4687C403.467 70.6758 402.829 70.8341 402.191 70.9681C401.902 71.029 401.613 71.0777 401.324 71.1264C400.831 71.2239 401.83 71.0899 400.987 71.1751C400.325 71.2482 399.663 71.2969 399.013 71.3335C395.547 71.5405 392.056 71.5527 388.577 71.4918C381.584 71.37 374.446 70.8097 367.657 69.7623C365.334 69.409 362.686 70.3469 362.108 72.9534C361.615 75.1336 362.758 78.1908 365.262 78.5684C371.834 79.5671 378.43 80.2614 385.075 80.5171C391.105 80.7486 397.316 80.9069 403.298 79.9812C409.281 79.0555 414.12 75.7791 416.106 69.9693C418.092 64.1595 417.333 57.1073 414.95 51.7847C413.638 48.8615 411.399 46.2794 408.27 45.3537C405.453 44.5254 402.372 44.9761 399.495 45.0005C396.618 45.0248 393.946 44.9517 391.177 44.7569C388.409 44.562 386.543 44.3427 383.907 43.8312C378.43 42.7837 373.82 41.2612 369.27 38.5329C368.777 38.2284 368.283 37.9239 367.802 37.6072C367.525 37.4245 367.248 37.2418 366.971 37.047C366.911 36.9983 366.141 36.4136 366.514 36.7303C366.887 37.047 366.189 36.4258 366.116 36.3649C365.9 36.1578 365.695 35.9508 365.491 35.7194C365.021 35.1713 365.767 36.2066 365.43 35.5854C365.274 35.2931 365.274 35.3418 365.43 35.7194L365.322 35.3174C365.322 35.6097 365.322 35.7803 365.31 36.0604C365.37 35.3661 365.262 35.9995 365.262 36.0117C365.238 35.963 365.804 35.1956 365.25 35.9142C365.418 35.695 365.647 35.5001 365.828 35.2931C365.9 35.2078 366.466 34.7206 365.924 35.1713C366.153 34.9886 366.405 34.818 366.646 34.6597C367.2 34.2943 367.79 33.9533 368.367 33.6244C371.148 32.0532 373.423 30.7621 376.396 30.007C376.733 29.9217 377.07 29.8486 377.419 29.7756C377.732 29.7268 377.756 29.7147 377.515 29.739L378.093 29.6781C379.056 29.605 380.031 29.6172 380.994 29.6659C382.751 29.7512 384.497 29.9583 386.242 30.1531C393.296 30.9205 400.217 31.9436 407.234 33.2103C409.546 33.6244 412.206 32.5769 412.783 30.0192C413.289 27.7902 412.121 24.8549 409.63 24.4042L409.666 24.4286Z" fill="#DDB96A"/>
<path d="M457.284 22.0169C452.806 21.7003 448.328 21.4567 443.839 21.2861C441.696 21.2009 439.553 21.14 437.399 21.0913C434.835 21.0304 432.355 21.0547 429.984 22.1631C426.554 23.7587 424.315 27.3883 423.593 31.0544C422.738 35.3783 423.52 39.6778 424.556 43.8921C425.037 45.8531 425.567 47.814 425.916 49.8115C426.193 51.3584 426.313 53.4533 426.337 55.4752C426.385 59.5677 426.048 63.6601 426.024 67.7648C426 71.8694 426.289 76.2785 427.565 80.2857C428.299 82.5999 429.202 85.2186 431.344 86.5828C433.487 87.9469 436.111 87.545 438.494 87.4719C448.822 87.1065 459.149 86.7533 469.477 86.3879C471.836 86.3026 474.099 84.3416 473.991 81.8204C473.883 79.2992 472.005 77.1677 469.477 77.2529C461.232 77.5452 452.999 77.8254 444.753 78.1177C442.767 78.1908 440.781 78.2517 438.795 78.3248C437.808 78.3613 436.809 78.3978 435.822 78.4344H435.521C434.991 78.4344 434.991 78.4587 435.533 78.544C436.809 79.8472 437.242 80.1396 436.857 79.4209C436.737 79.1652 436.725 79.1408 436.797 79.3357C436.641 78.5196 436.207 77.6914 435.979 76.8753C435.75 76.0593 435.593 75.2067 435.425 74.3663C435.112 72.7585 435.449 74.7317 435.329 73.7938C435.28 73.3675 435.232 72.9291 435.196 72.5028C435.112 71.4553 435.064 70.4078 435.052 69.3725C434.931 61.8331 435.942 54.3668 434.51 46.8762C434.161 45.0735 433.691 43.2953 433.246 41.5048C432.801 39.7144 432.355 37.7899 432.247 36.2431C432.199 35.4636 432.211 34.7084 432.235 33.9411C432.235 33.7462 432.367 33.0641 432.223 33.9411C432.283 33.6001 432.343 33.2712 432.428 32.9302C432.512 32.5891 432.62 32.2724 432.717 31.9558C433.066 30.7621 432.464 32.3821 432.813 31.7487C432.969 31.4564 433.138 31.1762 433.306 30.8961C432.825 31.7 433.415 30.823 433.571 30.6403L433.848 30.3846C433.427 30.7012 433.427 30.7256 433.848 30.4455C434.245 30.2384 434.293 30.214 434.004 30.348C433.667 30.4942 433.776 30.482 434.329 30.2993C433.74 30.3724 434.799 30.2628 434.931 30.2628C435.557 30.2384 436.195 30.2628 436.821 30.2749C438.964 30.3237 441.106 30.3846 443.261 30.4576C447.943 30.6282 452.613 30.8839 457.284 31.2128C459.643 31.3711 461.906 28.996 461.798 26.6453C461.677 24.0266 459.812 22.2484 457.284 22.0778V22.0169Z" fill="#DDB96A"/>
<path d="M433.21 61.2485C440.817 60.7248 448.449 60.6273 456.068 60.944C458.427 61.0414 460.69 58.776 460.582 56.3765C460.474 53.8187 458.596 51.9187 456.068 51.809C448.449 51.4924 440.817 51.5898 433.21 52.1135C430.863 52.2719 428.588 54.0989 428.696 56.681C428.805 59.0196 430.682 61.419 433.21 61.2485Z" fill="#DDB96A"/>
</svg>
